<?xml version="1.0" encoding="UTF-8" standalone="no"?>
<!-- Created with Inkscape (http://www.inkscape.org/) -->

<svg
   version="1.1"
   id="svg1"
   width="300"
   height="293"
   viewBox="0 0 300 293"
   sodipodi:docname="logo.svg"
   xml:space="preserve"
   inkscape:export-filename="logo.png"
   inkscape:export-xdpi="96"
   inkscape:export-ydpi="96"
   inkscape:version="1.3 (0e150ed6c4, 2023-07-21)"
   xmlns:inkscape="http://www.inkscape.org/namespaces/inkscape"
   xmlns:sodipodi="http://sodipodi.sourceforge.net/DTD/sodipodi-0.dtd"
   xmlns="http://www.w3.org/2000/svg"
   xmlns:svg="http://www.w3.org/2000/svg"><defs
     id="defs1" /><sodipodi:namedview
     id="namedview1"
     pagecolor="#ffffff"
     bordercolor="#000000"
     borderopacity="0.25"
     inkscape:showpageshadow="2"
     inkscape:pageopacity="0.0"
     inkscape:pagecheckerboard="0"
     inkscape:deskcolor="#d1d1d1"
     showguides="false"
     inkscape:zoom="1.93"
     inkscape:cx="150"
     inkscape:cy="146.63212"
     inkscape:window-width="1600"
     inkscape:window-height="930"
     inkscape:window-x="-6"
     inkscape:window-y="-6"
     inkscape:window-maximized="1"
     inkscape:current-layer="svg1" /><g
     id="g2"><g
       id="g1"><path
         style="fill:#000000;fill-opacity:1"
         d="M 1.0362695,146.63212 V 0.13212435 H 151.05222 301.06817 L 300.67271,88.382124 c -0.2175,48.537496 -0.40568,90.274996 -0.41818,92.749996 -0.0125,2.475 0.166,28.6875 0.39666,58.25 l 0.41938,53.75 H 151.05342 1.0362695 Z M 246.42776,259.59778 c 1.77149,-1.77149 1.00464,-4.21723 -3.4382,-10.96566 -1.44838,-2.2 -4.33833,-7.15 -6.42211,-11 -2.08378,-3.85 -5.56289,-10.05854 -7.73136,-13.79676 -2.16846,-3.73822 -5.97807,-10.71322 -8.4658,-15.5 -2.48773,-4.78678 -6.108,-11.40324 -8.04505,-14.70324 -1.93706,-3.3 -5.97059,-10.66037 -8.96341,-16.35638 -2.99281,-5.69601 -5.97112,-11.20446 -6.61845,-12.241 -1.03898,-1.66367 -0.19424,-2.79432 7.20501,-9.64362 4.61009,-4.26745 11.15527,-10.459 14.54485,-13.759 10.38892,-10.11435 17.25458,-15.54791 18.86497,-14.92995 2.38343,0.91461 7.11677,-2.11259 9.12027,-5.83287 2.3028,-4.27604 1.47402,-9.91185 -1.96303,-13.3489 -4.18531,-4.18532 -14.71131,-2.56009 -17.52999,2.70666 -0.61055,1.14083 -1.09767,4.6716 -1.08249,7.84615 l 0.0276,5.77193 -8.71525,8.39349 c -4.79339,4.61642 -11.75557,11.28784 -15.47151,14.82538 l -6.75625,6.43189 0.077,-49.32928 c 0.0442,-28.332876 -0.30949,-49.715727 -0.83097,-50.237207 -1.22373,-1.223729 -18.85681,-1.702657 -81.88023,-2.223929 -42.678685,-0.353 -53.394805,-0.184607 -54.255585,0.852567 -0.74966,0.903289 -0.99568,27.304961 -0.81706,87.683259 l 0.25555,86.39081 24.37577,0.26807 c 17.1428,0.18852 24.783545,-0.0704 25.750005,-0.87245 1.66373,-1.38077 1.80183,-4.51331 0.24149,-5.47765 -0.623,-0.38504 -10.185505,-0.82531 -21.249995,-0.97838 -11.0645,-0.15307 -20.45477,-0.31459 -20.86727,-0.35894 -0.4125,-0.0444 -0.75,-7.05565 -0.75,-15.58065 0,-11.69921 0.30652,-15.51568 1.25,-15.56397 1.31136,-0.0671 5.01633,-0.0188 44.750005,0.58334 13.475,0.20422 32.2625,0.44371 41.75,0.53221 9.4875,0.0885 17.25,0.41517 17.25,0.72593 0,0.31076 -0.60814,1.27545 -1.35143,2.14375 -0.74329,0.86831 -2.43079,3.60374 -3.75,6.07874 -1.31921,2.475 -3.77382,6.525 -5.45469,9 -1.68086,2.475 -4.60586,7.2 -6.5,10.5 -1.89413,3.3 -3.98873,6.9 -4.65466,8 -0.66593,1.1 -1.53554,2.675 -1.93246,3.5 -0.39693,0.825 -3.04043,5.1 -5.87444,9.5 -8.33101,12.93446 -11.07541,18.30692 -9.93449,19.44784 0.64615,0.64615 20.6489,1.24788 54.9839,1.65405 29.68255,0.35113 54.15577,0.80935 54.38494,1.01827 1.04464,0.95233 5.08914,0.23118 6.47482,-1.1545 z m -21.72492,-7.12672 c -0.0916,-0.0886 -18.39157,-0.28576 -40.66657,-0.43815 -22.275,-0.15239 -40.84456,-0.44834 -41.2657,-0.65765 -0.42113,-0.20932 0.37856,-2.26215 1.77709,-4.56186 1.39854,-2.2997 3.25687,-5.64378 4.12964,-7.43128 0.87277,-1.7875 1.98558,-3.25 2.47291,-3.25 0.48733,0 0.88606,-0.49303 0.88606,-1.09563 0,-0.60259 0.83898,-2.29009 1.8644,-3.75 1.02542,-1.4599 2.95248,-4.67937 4.28237,-7.15437 1.99096,-3.70532 13.83652,-23.68034 19.85323,-33.47828 6.47816,-10.54938 9,-14.9406 9,-15.67148 0,-0.46763 0.41968,-0.85024 0.93261,-0.85024 0.51294,0 1.21826,-0.9 1.56739,-2 0.79016,-2.48956 2.5,-2.62635 2.5,-0.2 0,0.99 0.4454,2.24541 0.98978,2.78978 0.54438,0.54438 3.17054,5.24688 5.83591,10.45 5.27376,10.29502 11.02475,20.87448 12.20936,22.46022 0.41088,0.55 2.37953,4.15 4.3748,8 1.99526,3.85 4.71821,8.8 6.051,11 1.33279,2.2 3.8868,6.925 5.67558,10.5 1.78879,3.575 4.70121,8.525 6.47206,11 l 3.21973,4.5 h -5.99754 c -3.29865,0 -6.0725,-0.0725 -6.16411,-0.16106 z M 65.917825,179.48761 c -0.52325,-0.62949 -0.82315,-5.95437 -0.66646,-11.83309 l 0.2849,-10.68856 20.29103,0.0527 c 16.608445,0.0431 20.561945,0.3236 21.783745,1.5454 0.82099,0.82099 3.11283,1.94004 5.09296,2.48679 6.64935,1.83595 12.33227,-3.43855 12.33227,-11.44599 0,-10.05798 -14.31916,-13.16446 -19.80047,-4.29562 l -2.05368,3.32288 -18.822925,-0.0532 -18.82293,-0.0531 -0.5,-43.79385 c -0.275,-24.086618 -0.27388,-44.15902 0.002,-44.605337 0.82973,-1.340005 26.31733,-0.443291 28.5397,1.004094 1.07681,0.7013 5.09586,4.827488 8.931235,9.169308 3.83536,4.341819 8.56397,9.567747 10.50802,11.613173 4.63151,4.873044 19.93093,21.903062 23.06379,25.672662 1.35014,1.62454 5.37979,6.14285 8.95479,10.04069 3.575,3.89784 7.84875,8.64367 9.49721,10.54629 3.40105,3.9254 18.55809,21.1741 21.93264,24.95931 1.22582,1.375 3.67671,4.15848 5.44642,6.1855 l 3.21764,3.6855 -3.17361,6.3145 c -1.74549,3.47298 -4.07361,7.589 -5.17359,9.14672 l -1.99998,2.83221 -53.9569,-0.33221 c -38.930045,-0.2397 -54.221865,-0.65096 -54.908275,-1.47673 z M 181.95032,147.38212 c -2.42951,-2.6125 -5.93083,-6.55 -7.78072,-8.75 -3.37552,-4.01438 -11.87678,-13.61805 -22.13333,-25.00351 -3.025,-3.35795 -7.08587,-7.88087 -9.02415,-10.05092 -25.47325,-28.51933 -37.2635,-41.379961 -38.2643,-41.738146 -0.66635,-0.238485 -0.94107,-0.728196 -0.61049,-1.088245 0.58475,-0.636869 9.92893,-0.740937 59.15367,-0.658808 l 23.75472,0.03963 -0.0498,45.999999 c -0.0274,25.3 -0.17997,46 -0.33905,46 -0.15908,0 -2.27702,-2.1375 -4.70653,-4.75 z m 88.07456,110.75 c 0.5717,-2.29325 1.34308,-92.44374 1.4622,-170.887838 0.0452,-29.788773 -0.0912,-32.476681 -1.70081,-33.494885 -2.98766,-1.889983 -5.23746,0.430052 -5.3307,5.497127 -0.23598,12.823398 -1.45802,139.959496 -1.61206,167.711566 -0.15063,27.13726 0.0511,32.47521 1.25666,33.25573 2.42947,1.57289 5.26171,0.57776 5.92471,-2.0817 z"
         id="path1" /></g></g></svg>
